<?xml version="1.0" standalone="no"?>
<!DOCTYPE svg PUBLIC "-//W3C//DTD SVG 20010904//EN"
 "http://www.w3.org/TR/2001/REC-SVG-20010904/DTD/svg10.dtd">
<svg version="1.0" xmlns="http://www.w3.org/2000/svg"
 width="3601.000000pt" height="3601.000000pt" viewBox="0 0 3601.000000 3601.000000"
 preserveAspectRatio="xMidYMid meet">
<metadata>
Created by potrace 1.11, written by Peter Selinger 2001-2013
</metadata>
<g transform="translate(0.000000,3601.000000) scale(0.100000,-0.100000)"
fill="#000000" stroke="none">
<path d="M17587 35804 c-1 -1 -94 -5 -207 -8 -113 -4 -236 -9 -275 -11 -38 -2
-122 -7 -185 -11 -63 -3 -131 -7 -150 -9 -19 -1 -80 -5 -135 -9 -55 -4 -118
-9 -140 -11 -22 -3 -67 -7 -100 -10 -118 -10 -190 -17 -215 -20 -14 -2 -52 -7
-85 -10 -152 -14 -209 -20 -275 -30 -14 -2 -52 -7 -85 -11 -33 -3 -67 -7 -75
-9 -8 -1 -40 -6 -70 -10 -30 -4 -63 -9 -74 -11 -10 -2 -44 -6 -75 -9 -31 -4
-63 -8 -71 -10 -8 -2 -35 -7 -60 -10 -25 -3 -81 -12 -125 -20 -44 -8 -96 -16
-115 -19 -31 -4 -107 -17 -180 -31 -13 -3 -42 -7 -65 -10 -48 -7 -264 -49
-390 -75 -145 -31 -504 -110 -518 -115 -6 -2 -25 -7 -42 -10 -16 -3 -41 -8
-55 -11 -14 -2 -32 -7 -40 -10 -8 -3 -24 -8 -36 -10 -11 -2 -56 -13 -100 -24
-43 -12 -86 -22 -94 -24 -8 -2 -51 -14 -95 -26 -44 -12 -89 -23 -100 -26 -11
-2 -99 -26 -195 -54 -96 -28 -182 -52 -190 -54 -142 -38 -913 -289 -985 -321
-16 -8 -68 -27 -115 -44 -177 -62 -646 -245 -745 -291 -22 -10 -85 -37 -140
-60 -55 -24 -118 -51 -140 -61 -63 -29 -284 -128 -350 -157 -33 -14 -229 -111
-435 -214 -342 -171 -473 -239 -615 -319 -27 -16 -68 -38 -90 -50 -44 -24
-438 -252 -491 -284 -18 -11 -65 -40 -106 -64 -387 -234 -1145 -745 -1368
-923 -19 -15 -84 -65 -145 -110 -319 -238 -948 -759 -1165 -964 -19 -18 -51
-47 -70 -65 -307 -275 -927 -897 -1191 -1194 -24 -27 -55 -62 -69 -76 -67 -70
-366 -418 -460 -534 -35 -44 -67 -82 -70 -85 -4 -3 -70 -86 -149 -185 -78 -99
-149 -188 -156 -197 -8 -10 -61 -79 -117 -155 -57 -76 -107 -142 -111 -148
-12 -16 -78 -105 -124 -171 -24 -32 -57 -79 -75 -104 -70 -95 -184 -263 -315
-460 -126 -191 -162 -245 -255 -390 -78 -123 -298 -491 -298 -500 0 -6 -4 -10
-9 -10 -5 0 -11 -8 -14 -17 -6 -19 -48 -95 -98 -176 -16 -26 -29 -49 -29 -51
0 -2 -16 -33 -36 -68 -34 -59 -63 -114 -171 -313 -51 -94 -403 -800 -403 -808
0 -3 -15 -38 -34 -79 -117 -251 -255 -575 -371 -868 -52 -129 -100 -253 -108
-275 -8 -22 -33 -91 -56 -152 -106 -290 -174 -488 -276 -813 -100 -315 -198
-666 -281 -1005 -24 -99 -48 -196 -54 -215 -11 -42 -67 -291 -75 -339 -3 -19
-8 -37 -10 -41 -2 -4 -7 -22 -10 -41 -3 -19 -17 -88 -30 -154 -54 -275 -121
-648 -140 -788 -13 -92 -16 -114 -20 -127 -2 -8 -6 -40 -10 -71 -3 -31 -7 -66
-9 -76 -3 -11 -7 -44 -11 -74 -3 -30 -8 -65 -10 -79 -2 -14 -6 -45 -10 -70 -3
-25 -7 -61 -10 -80 -2 -19 -7 -60 -10 -90 -3 -30 -8 -71 -10 -90 -3 -19 -7
-64 -10 -100 -3 -36 -8 -76 -10 -90 -2 -14 -7 -63 -10 -110 -3 -47 -8 -92 -10
-100 -2 -8 -6 -60 -10 -115 -3 -55 -8 -116 -10 -135 -3 -19 -7 -84 -11 -145
-3 -60 -7 -132 -9 -160 -3 -45 -8 -157 -21 -455 -6 -139 -6 -971 0 -1140 7
-191 15 -369 21 -456 3 -39 8 -113 11 -165 11 -188 24 -353 29 -388 3 -14 7
-63 11 -110 3 -47 7 -93 9 -101 2 -8 6 -55 11 -105 4 -49 8 -92 9 -95 1 -3 5
-36 9 -75 4 -38 9 -80 11 -91 5 -31 18 -135 20 -159 1 -11 5 -42 9 -70 4 -27
9 -66 12 -85 2 -19 6 -48 9 -65 3 -16 7 -48 10 -70 8 -59 16 -107 21 -135 2
-14 11 -70 19 -125 9 -55 18 -111 20 -125 3 -14 8 -40 11 -59 3 -18 8 -43 10
-55 2 -11 9 -48 14 -81 6 -33 15 -80 20 -105 5 -25 16 -83 25 -130 8 -47 17
-95 20 -108 2 -13 6 -31 9 -40 3 -9 8 -30 11 -47 6 -34 16 -85 19 -100 2 -5 6
-28 10 -50 5 -22 19 -87 33 -145 14 -58 27 -114 29 -125 2 -11 6 -31 10 -45 3
-14 10 -43 14 -65 26 -118 169 -660 201 -761 11 -33 21 -69 23 -80 18 -86 200
-650 311 -964 140 -392 337 -892 455 -1155 10 -22 39 -87 65 -145 50 -113 80
-177 153 -335 56 -120 341 -687 402 -800 84 -154 284 -511 325 -580 24 -38 52
-86 63 -106 18 -33 253 -413 294 -477 10 -15 25 -40 34 -56 28 -51 361 -542
467 -690 112 -157 288 -398 297 -406 3 -3 41 -52 84 -110 75 -100 378 -482
401 -506 6 -6 27 -31 46 -54 47 -59 111 -134 118 -140 3 -3 23 -26 44 -52 21
-26 43 -53 50 -60 7 -7 43 -49 82 -93 38 -44 76 -87 85 -96 8 -9 40 -45 72
-80 179 -204 338 -370 663 -694 329 -329 455 -449 714 -681 24 -21 53 -48 65
-59 12 -11 71 -63 131 -115 61 -52 112 -97 115 -100 3 -3 26 -22 52 -43 26
-21 53 -43 60 -50 7 -7 42 -36 78 -65 36 -30 81 -67 100 -83 88 -75 491 -389
640 -499 91 -66 172 -127 180 -133 89 -71 800 -557 815 -557 3 0 11 -5 18 -10
16 -14 230 -150 292 -185 28 -16 52 -32 55 -35 5 -6 215 -131 300 -178 25 -14
61 -35 80 -47 57 -35 489 -275 496 -275 3 0 19 -9 35 -21 16 -11 29 -17 29
-13 0 4 8 1 18 -8 18 -15 26 -19 322 -168 256 -129 477 -234 735 -350 199 -90
802 -340 820 -340 4 0 21 -7 38 -15 153 -70 903 -327 1285 -439 438 -129 1112
-303 1287 -332 17 -2 44 -9 60 -14 17 -5 44 -11 60 -14 17 -2 109 -21 205 -40
184 -37 185 -37 320 -61 47 -8 96 -17 110 -20 25 -5 62 -11 110 -19 14 -2 41
-7 60 -10 62 -11 94 -15 171 -26 41 -6 84 -12 95 -14 10 -2 44 -7 74 -11 30
-4 64 -9 75 -11 21 -5 61 -10 135 -19 25 -3 61 -7 80 -10 19 -2 60 -7 90 -10
30 -4 66 -8 80 -10 14 -2 54 -7 90 -10 36 -3 76 -8 90 -10 14 -2 57 -7 95 -10
39 -4 84 -9 100 -11 17 -2 64 -6 105 -9 41 -4 91 -8 110 -10 19 -2 80 -7 135
-10 55 -4 116 -8 135 -10 19 -2 91 -7 160 -10 69 -4 148 -8 175 -10 297 -24
1548 -24 1804 0 25 2 98 7 161 10 63 3 140 8 170 10 30 2 91 7 135 10 44 3
105 8 135 11 30 2 80 7 110 9 72 7 154 15 209 21 25 3 70 7 100 10 31 2 70 6
87 9 17 2 57 7 90 10 32 4 70 8 84 10 30 5 94 13 153 20 39 5 89 12 147 20 14
2 45 7 70 10 25 3 57 8 73 11 15 2 39 6 55 8 15 3 47 8 72 11 100 14 512 86
626 109 66 13 293 59 314 62 14 3 45 10 70 15 25 6 52 12 60 14 8 2 67 15 130
30 63 14 126 29 140 31 33 7 349 86 475 119 706 185 1513 458 2211 745 678
280 1451 659 2054 1008 182 105 487 287 565 337 28 18 92 59 143 91 382 242
793 528 1182 822 178 135 586 455 600 472 4 5 67 57 148 125 14 11 30 25 36
30 6 6 40 35 76 65 36 30 70 60 76 65 6 6 42 37 80 70 38 33 91 81 119 106 27
25 70 63 94 85 47 42 56 50 237 219 136 126 595 584 729 726 74 78 248 266
290 313 151 169 196 219 321 367 150 176 153 179 346 419 99 124 188 234 197
245 9 11 70 92 136 180 66 88 124 165 128 170 13 16 181 251 254 355 159 226
466 691 489 740 4 8 17 29 28 45 12 17 26 39 33 50 7 11 63 106 126 210 63
105 127 212 143 240 16 27 34 59 41 70 7 11 16 27 20 35 4 8 38 68 75 133 37
66 68 120 68 122 0 1 19 38 43 81 110 200 303 578 407 799 122 258 150 317
150 320 0 2 13 32 29 67 97 213 195 445 290 688 41 102 79 199 86 215 62 144
319 889 395 1145 34 112 104 352 113 385 3 11 14 52 25 90 83 289 230 903 288
1200 4 22 8 42 9 45 3 12 17 87 21 110 3 14 13 70 24 125 11 55 22 116 25 135
6 36 15 89 21 125 21 113 44 263 80 515 3 19 7 46 9 60 2 14 7 48 10 75 3 28
10 82 15 120 12 87 17 134 25 205 3 30 8 71 10 90 9 75 15 137 19 191 3 30 7
75 10 100 5 41 8 72 21 242 3 34 7 94 10 132 9 106 19 294 32 575 10 220 10
1211 0 1425 -12 261 -25 489 -32 555 -2 25 -7 86 -10 135 -3 50 -10 135 -15
190 -5 55 -12 133 -16 174 -3 41 -7 82 -9 91 -2 9 -6 53 -10 96 -3 43 -8 86
-10 94 -3 8 -7 40 -10 70 -5 59 -33 272 -39 305 -2 11 -7 46 -11 79 -3 32 -8
68 -10 80 -2 11 -6 39 -10 61 -9 63 -25 168 -30 195 -3 14 -7 45 -11 70 -3 25
-7 52 -9 60 -2 8 -7 31 -10 50 -3 19 -8 47 -11 62 -3 15 -7 39 -9 55 -2 15
-13 75 -24 133 -11 58 -23 119 -26 135 -10 57 -16 88 -46 229 -16 77 -34 163
-39 189 -5 26 -19 87 -31 135 -11 48 -23 97 -25 108 -24 129 -171 681 -276
1039 -104 354 -401 1216 -483 1400 -7 17 -40 98 -73 180 -72 179 -199 477
-253 593 -22 46 -39 86 -39 87 0 5 -71 156 -153 325 -39 80 -71 147 -71 150
-11 42 -355 691 -521 980 -21 36 -49 85 -63 110 -56 99 -289 482 -380 624
-141 220 -457 689 -499 741 -5 6 -42 57 -83 115 -41 58 -78 110 -82 115 -5 6
-47 61 -94 124 -99 133 -232 307 -256 336 -9 11 -56 70 -104 130 -412 516
-815 965 -1324 1475 -294 294 -467 458 -750 709 -155 138 -154 137 -306 266
-134 115 -186 158 -264 221 -19 16 -37 31 -40 34 -9 10 -486 382 -541 422 -13
9 -71 52 -129 95 -271 202 -638 454 -955 658 -49 31 -101 65 -115 74 -41 26
-55 35 -96 59 -22 12 -79 47 -129 78 -158 98 -513 304 -524 304 -6 0 -11 5
-11 10 0 6 -4 10 -9 10 -8 0 -49 22 -231 123 -149 82 -263 141 -585 301 -192
96 -390 192 -440 214 -49 22 -121 54 -159 72 -335 153 -800 342 -1201 486 -99
36 -189 69 -200 74 -33 15 -676 224 -721 235 -11 3 -80 23 -154 45 -123 37
-443 127 -480 135 -8 2 -105 26 -215 54 -266 67 -781 180 -980 216 -16 3 -69
12 -117 20 -49 9 -94 18 -100 20 -11 3 -367 61 -503 80 -22 4 -51 8 -65 10
-14 2 -47 7 -75 10 -27 4 -61 8 -75 10 -14 2 -47 7 -75 10 -27 4 -61 8 -75 10
-14 2 -52 7 -85 11 -33 3 -69 8 -80 10 -11 2 -47 6 -80 9 -33 3 -76 7 -95 10
-58 7 -131 14 -200 20 -36 3 -76 7 -90 10 -14 2 -70 6 -125 10 -55 4 -120 9
-145 11 -25 2 -81 6 -125 9 -44 3 -105 7 -135 9 -55 5 -236 13 -445 22 -109 5
-1063 12 -1068 8z m853 -629 c253 -6 309 -8 530 -20 164 -9 336 -21 435 -30
28 -2 85 -7 127 -10 43 -4 90 -8 105 -10 29 -3 132 -13 213 -21 25 -2 61 -6
80 -9 19 -2 60 -7 90 -10 30 -4 66 -8 80 -10 14 -2 51 -7 83 -10 32 -4 66 -8
76 -10 10 -2 42 -6 72 -10 30 -3 65 -8 79 -10 14 -2 75 -11 135 -20 118 -17
141 -21 195 -30 19 -4 49 -8 65 -11 17 -3 39 -6 50 -8 30 -5 107 -18 130 -22
21 -4 125 -23 160 -29 32 -5 138 -25 160 -29 11 -2 79 -16 150 -31 134 -27
223 -47 408 -90 59 -14 115 -27 125 -29 9 -1 28 -6 42 -9 43 -11 194 -48 210
-52 182 -40 823 -227 1160 -339 165 -54 508 -173 535 -186 11 -5 76 -30 145
-55 532 -199 1080 -441 1645 -726 287 -144 380 -193 525 -274 41 -24 100 -56
130 -72 84 -46 134 -74 145 -83 6 -4 35 -21 65 -37 64 -35 309 -181 460 -275
208 -128 544 -349 548 -360 2 -4 8 -8 12 -8 30 0 695 -483 1029 -748 167 -131
210 -166 275 -222 23 -19 61 -51 85 -70 24 -19 48 -39 55 -45 13 -12 160 -138
196 -169 36 -31 198 -174 245 -216 22 -20 72 -65 110 -100 112 -102 375 -353
549 -526 134 -133 483 -500 587 -619 24 -27 69 -76 99 -110 87 -96 121 -135
180 -205 30 -36 57 -67 60 -70 17 -16 266 -319 369 -450 68 -85 131 -164 140
-175 68 -84 356 -477 534 -730 170 -241 462 -696 637 -990 39 -66 75 -127 81
-135 16 -27 135 -235 142 -250 4 -8 15 -28 25 -45 10 -16 38 -66 62 -110 23
-44 50 -93 60 -110 35 -60 292 -561 296 -575 0 -3 33 -72 73 -154 218 -449
433 -959 641 -1521 54 -144 285 -833 294 -876 3 -13 33 -116 66 -229 61 -205
204 -758 254 -985 15 -66 33 -149 41 -185 8 -36 17 -80 20 -99 3 -19 7 -37 9
-40 2 -3 7 -22 10 -41 3 -19 14 -81 25 -138 12 -56 23 -115 26 -130 3 -15 7
-38 10 -52 3 -14 10 -52 15 -85 6 -33 13 -73 16 -90 8 -39 12 -69 20 -130 3
-27 8 -53 10 -56 2 -4 6 -27 9 -50 3 -24 12 -84 20 -134 8 -49 17 -110 19
-135 3 -25 8 -56 10 -70 6 -30 33 -243 41 -315 3 -27 7 -63 9 -80 2 -16 7 -61
11 -100 4 -38 8 -77 10 -85 2 -8 6 -53 10 -100 3 -47 9 -103 11 -125 3 -22 7
-67 9 -100 2 -33 6 -91 10 -130 58 -744 65 -1601 20 -2340 -14 -233 -24 -381
-30 -430 -2 -22 -7 -71 -10 -110 -12 -152 -17 -199 -30 -305 -2 -19 -7 -62
-10 -95 -7 -70 -15 -140 -20 -175 -2 -14 -7 -52 -11 -85 -3 -33 -8 -69 -10
-80 -2 -11 -7 -40 -10 -65 -3 -25 -7 -56 -9 -70 -2 -14 -7 -47 -10 -75 -4 -27
-8 -57 -10 -65 -2 -8 -7 -35 -10 -60 -3 -25 -10 -70 -15 -100 -5 -30 -12 -73
-15 -95 -3 -22 -9 -53 -12 -70 -3 -16 -7 -39 -9 -50 -10 -59 -17 -99 -34 -190
-11 -55 -21 -111 -24 -125 -5 -27 -65 -325 -71 -350 -2 -8 -13 -58 -24 -110
-66 -307 -225 -924 -300 -1165 -5 -16 -26 -84 -46 -150 -102 -335 -374 -1111
-440 -1260 -8 -16 -36 -87 -64 -156 -27 -69 -83 -204 -124 -300 -70 -164 -89
-206 -153 -346 -69 -152 -85 -186 -139 -298 -32 -66 -59 -122 -60 -125 -2 -12
-158 -316 -167 -327 -6 -7 -7 -13 -4 -13 4 0 -1 -12 -12 -28 -10 -15 -40 -70
-67 -122 -43 -85 -234 -435 -274 -502 -9 -14 -34 -57 -55 -95 -48 -82 -245
-409 -310 -513 -89 -141 -155 -245 -163 -255 -4 -5 -42 -62 -83 -125 -41 -63
-77 -117 -80 -120 -3 -3 -23 -32 -45 -65 -77 -116 -367 -519 -464 -646 -36
-47 -77 -101 -91 -119 -66 -89 -266 -340 -398 -500 -71 -85 -337 -395 -378
-440 -22 -25 -67 -74 -99 -110 -142 -159 -361 -390 -617 -650 -159 -161 -506
-488 -718 -677 -25 -21 -61 -53 -80 -70 -46 -41 -74 -66 -134 -116 -27 -23
-54 -46 -60 -52 -10 -9 -111 -95 -161 -137 -134 -112 -415 -337 -540 -430 -5
-4 -26 -20 -45 -36 -33 -26 -245 -183 -405 -299 -306 -223 -821 -560 -1175
-770 -80 -47 -156 -93 -170 -102 -14 -8 -34 -21 -45 -27 -11 -6 -38 -21 -60
-34 -153 -87 -357 -200 -515 -284 -111 -60 -664 -335 -765 -381 -33 -16 -91
-42 -130 -60 -38 -18 -144 -65 -235 -105 -91 -39 -178 -78 -195 -85 -62 -28
-376 -155 -520 -210 -340 -130 -620 -228 -1110 -386 -64 -20 -393 -117 -423
-124 -9 -2 -118 -31 -240 -64 -239 -64 -635 -160 -727 -176 -16 -3 -37 -8 -45
-10 -21 -6 -299 -64 -395 -81 -228 -43 -439 -80 -500 -89 -58 -8 -116 -17
-165 -25 -30 -5 -75 -12 -100 -15 -25 -3 -56 -8 -70 -10 -14 -2 -50 -7 -80
-10 -30 -4 -62 -9 -70 -10 -8 -2 -44 -6 -80 -10 -36 -4 -72 -8 -80 -10 -8 -2
-44 -6 -80 -10 -36 -3 -72 -8 -80 -10 -8 -2 -52 -7 -97 -10 -45 -3 -91 -8
-102 -10 -12 -2 -58 -7 -104 -10 -45 -3 -93 -8 -107 -10 -14 -2 -65 -6 -115
-10 -49 -4 -108 -8 -130 -10 -115 -10 -340 -23 -525 -31 -306 -12 -416 -14
-760 -13 -479 0 -805 10 -1125 33 -38 3 -108 8 -155 11 -47 4 -101 8 -120 10
-19 2 -71 6 -115 9 -44 4 -98 9 -120 11 -22 2 -65 7 -95 10 -64 6 -229 23
-280 30 -19 2 -57 7 -85 10 -27 3 -63 8 -80 10 -27 4 -156 21 -228 31 -26 3
-77 10 -137 19 -14 2 -45 7 -70 11 -25 4 -52 8 -60 9 -52 8 -118 18 -135 21
-11 2 -33 7 -50 9 -16 3 -79 14 -140 25 -60 10 -126 22 -145 25 -19 3 -66 12
-105 20 -38 8 -81 16 -95 19 -14 2 -36 7 -50 10 -14 3 -36 8 -50 10 -25 5
-101 20 -150 31 -14 3 -37 7 -52 10 -15 3 -84 19 -152 35 -68 16 -135 31 -148
34 -18 3 -184 44 -488 121 -19 5 -252 70 -305 85 -211 61 -759 232 -800 250
-11 5 -56 21 -100 36 -238 80 -854 317 -1045 402 -25 10 -90 39 -145 62 -443
190 -1038 482 -1428 701 -38 22 -70 39 -72 39 -7 0 -347 197 -510 295 -357
216 -648 405 -955 619 -171 119 -548 393 -560 405 -3 4 -52 42 -110 86 -92 69
-356 278 -422 333 -233 196 -369 310 -393 332 -16 15 -75 67 -130 116 -55 49
-102 91 -105 94 -3 3 -32 30 -65 60 -366 333 -941 911 -1167 1173 -11 12 -34
38 -52 57 -271 297 -745 878 -1016 1247 -19 27 -39 52 -43 58 -4 5 -37 51 -72
100 -35 50 -72 101 -83 115 -118 154 -722 1079 -722 1106 0 2 -15 28 -34 57
-19 29 -43 69 -54 88 -10 19 -66 117 -124 219 -58 102 -123 219 -146 260 -344
639 -603 1189 -849 1805 -45 110 -104 263 -133 340 -28 77 -56 149 -60 160
-16 36 -140 395 -140 405 0 6 -4 18 -10 28 -8 15 -109 320 -114 347 -1 6 -16
55 -33 110 -39 123 -94 313 -99 340 -2 11 -8 31 -13 45 -8 19 -56 197 -87 320
-19 79 -86 348 -89 360 -35 151 -47 209 -51 230 -4 23 -9 48 -30 135 -4 17 -8
37 -10 45 -5 24 -17 84 -20 95 -4 17 -11 57 -34 180 -12 66 -23 122 -25 125
-2 4 -6 24 -9 46 -4 34 -14 95 -30 179 -2 11 -7 40 -11 65 -4 25 -9 54 -11 65
-2 10 -6 37 -9 60 -6 39 -28 182 -40 260 -4 22 -8 56 -11 75 -2 19 -6 49 -8
65 -3 17 -8 57 -12 90 -3 33 -8 69 -10 80 -2 11 -6 47 -9 82 -3 34 -8 71 -10
82 -2 11 -7 51 -10 88 -4 37 -8 79 -10 93 -3 14 -7 57 -10 95 -3 39 -8 86 -10
105 -4 33 -10 98 -20 240 -3 36 -7 83 -9 105 -2 22 -8 103 -12 180 -4 77 -8
158 -9 180 -25 370 -25 1521 0 1815 2 25 7 97 10 160 4 63 8 138 10 165 3 28
7 88 10 135 4 47 8 96 10 110 2 14 7 66 10 115 4 50 9 97 10 106 2 8 6 49 9
90 4 41 9 85 11 99 3 14 7 50 10 80 5 55 11 103 20 170 3 19 7 53 10 75 3 21
10 75 15 120 6 44 13 96 16 115 2 19 7 45 9 57 3 12 7 41 10 65 3 24 7 54 10
68 10 67 18 116 20 130 1 8 6 35 10 60 4 25 9 54 11 65 2 11 11 61 19 110 9
50 22 124 30 165 8 41 17 86 19 100 3 14 14 69 25 124 24 111 25 119 41 196 5
30 17 82 25 115 7 33 23 103 35 155 69 306 153 627 285 1080 79 273 351 1070
405 1185 5 11 38 94 73 185 65 166 178 439 223 538 13 29 24 54 24 56 0 2 18
44 41 93 22 48 48 104 56 123 76 171 337 701 455 920 52 96 97 182 101 190 4
8 11 22 17 30 5 8 63 110 129 225 195 346 381 649 622 1010 134 201 315 464
371 537 9 13 69 93 132 178 63 85 122 164 131 175 9 11 24 31 33 43 26 36 334
426 341 432 3 3 24 28 46 55 49 62 332 394 354 416 9 9 41 44 71 79 30 35 64
73 75 85 11 11 67 72 125 135 274 300 630 656 994 995 41 38 132 120 176 159
25 22 65 58 90 80 25 23 74 66 109 96 36 30 69 60 75 65 23 22 253 213 340
283 50 40 109 88 131 107 97 80 540 417 645 490 16 11 80 57 142 101 521 374
1212 803 1793 1114 44 23 108 58 141 76 74 40 601 304 607 304 2 0 60 26 128
59 178 84 453 205 684 300 110 46 214 89 230 96 17 7 104 40 195 75 91 34 174
65 185 70 11 5 92 34 180 65 88 31 184 65 213 76 76 27 545 178 622 199 36 10
112 32 170 49 58 18 112 33 120 35 8 2 92 25 186 50 94 26 179 48 190 51 10 2
83 20 162 40 165 41 394 94 437 101 17 3 36 7 43 9 12 4 234 51 292 61 14 3
32 7 40 9 8 3 33 7 55 10 22 4 47 8 55 10 8 3 33 7 55 11 22 3 58 9 80 14 22
5 112 21 200 35 88 14 171 28 185 30 33 6 444 64 490 70 19 2 60 7 90 10 30 4
66 8 80 10 14 2 53 7 88 10 35 4 72 8 82 10 10 2 59 7 107 10 48 4 95 9 104
10 9 2 61 7 115 10 55 4 106 9 114 10 14 3 57 6 270 20 245 17 407 23 725 31
149 4 271 7 272 8 3 2 322 -2 573 -9z"/>
<path d="M17927 34714 c-1 -1 -141 -5 -312 -9 -170 -4 -335 -8 -365 -10 -30
-1 -116 -6 -190 -10 -74 -3 -151 -8 -170 -10 -19 -2 -82 -6 -140 -10 -58 -3
-121 -8 -140 -10 -19 -3 -63 -7 -97 -10 -131 -11 -179 -15 -213 -19 -19 -3
-64 -7 -100 -11 -57 -5 -119 -12 -260 -30 -19 -3 -57 -7 -85 -10 -27 -4 -61
-8 -75 -10 -14 -2 -47 -7 -75 -10 -27 -3 -75 -10 -105 -15 -30 -5 -77 -12
-105 -15 -27 -4 -57 -8 -65 -10 -8 -2 -35 -7 -60 -10 -43 -6 -192 -30 -236
-39 -12 -2 -39 -7 -60 -10 -22 -4 -95 -17 -164 -30 -69 -14 -138 -27 -155 -29
-31 -6 -193 -40 -435 -92 -21 -5 -61 -15 -215 -51 -11 -3 -31 -7 -45 -10 -14
-2 -32 -7 -40 -10 -8 -3 -26 -8 -38 -10 -13 -3 -49 -12 -80 -20 -32 -8 -66
-17 -78 -19 -34 -8 -423 -114 -514 -142 -47 -14 -121 -36 -165 -50 -44 -14
-87 -26 -95 -28 -8 -2 -114 -36 -235 -76 -121 -40 -224 -74 -230 -75 -16 -4
-268 -93 -290 -103 -11 -5 -60 -23 -110 -41 -307 -111 -864 -342 -1195 -498
-201 -94 -246 -115 -265 -123 -11 -5 -27 -13 -35 -19 -8 -5 -89 -46 -180 -91
-205 -101 -391 -200 -678 -359 -43 -24 -245 -140 -262 -150 -30 -19 -386 -234
-420 -254 -19 -11 -37 -23 -40 -27 -3 -3 -16 -12 -30 -19 -29 -15 -604 -398
-701 -468 -133 -95 -274 -196 -284 -205 -5 -4 -71 -53 -145 -109 -289 -216
-765 -604 -972 -792 -31 -28 -71 -64 -90 -80 -34 -29 -141 -126 -277 -251
-115 -105 -743 -736 -851 -854 -52 -57 -111 -121 -130 -142 -19 -21 -60 -66
-90 -100 -30 -34 -60 -67 -65 -73 -30 -32 -265 -308 -354 -416 -137 -166 -131
-159 -171 -210 -19 -25 -39 -50 -45 -56 -6 -6 -37 -47 -70 -90 -33 -43 -63
-81 -66 -84 -9 -8 -269 -357 -334 -449 -33 -46 -77 -107 -97 -135 -159 -220
-668 -1008 -668 -1035 0 -6 -4 -11 -10 -11 -5 0 -10 -4 -10 -9 0 -4 -31 -60
-68 -122 -38 -63 -72 -121 -75 -129 -4 -8 -15 -28 -25 -45 -29 -47 -98 -171
-162 -290 -24 -44 -63 -116 -87 -160 -42 -78 -335 -665 -366 -735 -8 -19 -36
-80 -62 -135 -67 -144 -194 -438 -260 -600 -31 -77 -62 -153 -69 -170 -17 -40
-41 -99 -42 -105 0 -3 -5 -16 -11 -30 -10 -24 -86 -229 -156 -420 -109 -295
-337 -1028 -402 -1290 -2 -8 -29 -113 -59 -233 -31 -120 -58 -228 -60 -240 -2
-12 -14 -62 -25 -112 -24 -100 -126 -590 -135 -645 -7 -47 -35 -207 -43 -245
-3 -16 -7 -39 -8 -50 -2 -11 -6 -36 -10 -55 -3 -19 -8 -48 -11 -65 -2 -16 -6
-41 -9 -55 -2 -14 -7 -45 -10 -70 -4 -25 -8 -57 -11 -72 -11 -71 -13 -87 -19
-138 -3 -30 -8 -62 -10 -70 -2 -8 -7 -40 -10 -70 -3 -30 -8 -66 -10 -80 -2
-14 -7 -50 -10 -80 -3 -30 -7 -71 -10 -90 -2 -19 -7 -60 -10 -90 -4 -30 -8
-66 -10 -80 -2 -14 -6 -59 -10 -100 -3 -41 -8 -86 -10 -100 -2 -14 -7 -61 -10
-105 -3 -44 -8 -107 -11 -140 -8 -94 -17 -231 -29 -440 -26 -451 -26 -1328 0
-1780 2 -44 7 -123 10 -175 2 -52 7 -120 9 -150 3 -30 8 -93 11 -140 4 -47 8
-96 10 -110 2 -14 6 -65 10 -114 4 -50 8 -97 10 -105 1 -9 6 -52 10 -95 4 -43
8 -86 10 -95 1 -9 6 -46 9 -83 4 -37 9 -77 11 -90 5 -33 15 -113 21 -167 2
-25 6 -53 9 -61 2 -8 7 -40 10 -70 3 -30 8 -67 11 -82 10 -67 13 -88 24 -163
7 -44 14 -89 16 -100 2 -11 6 -31 8 -45 3 -14 8 -43 11 -65 5 -35 22 -133 40
-230 3 -16 10 -52 15 -80 5 -27 14 -75 20 -105 6 -30 13 -66 16 -80 2 -14 9
-45 14 -70 5 -25 12 -56 14 -70 2 -14 19 -88 36 -165 17 -77 33 -151 36 -165
3 -14 10 -43 16 -65 5 -22 12 -49 14 -60 2 -11 17 -74 34 -140 17 -66 33 -131
36 -143 2 -13 11 -47 19 -75 8 -29 27 -101 44 -162 130 -483 305 -1020 489
-1505 79 -209 128 -336 142 -365 5 -11 51 -121 103 -245 89 -210 151 -350 265
-595 52 -111 308 -621 367 -730 20 -38 52 -97 70 -130 18 -33 50 -91 70 -130
61 -112 267 -462 376 -638 55 -89 106 -171 112 -182 40 -66 385 -582 465 -695
182 -256 677 -908 722 -950 3 -3 37 -43 75 -90 80 -97 84 -102 190 -225 79
-92 171 -196 260 -295 28 -30 64 -70 80 -89 87 -98 241 -257 520 -536 310
-311 398 -396 575 -555 162 -146 203 -183 270 -240 35 -30 82 -71 104 -91 205
-180 819 -667 983 -779 11 -8 83 -60 160 -115 477 -345 1102 -742 1606 -1019
23 -13 69 -38 102 -56 33 -18 78 -43 100 -55 108 -60 433 -228 445 -230 3 -1
34 -16 70 -35 36 -19 72 -37 80 -40 8 -3 67 -31 130 -61 63 -31 142 -69 175
-84 55 -25 238 -108 310 -140 347 -155 1022 -415 1375 -530 63 -20 124 -41
135 -45 11 -5 81 -27 155 -50 74 -23 162 -50 195 -61 206 -64 836 -234 940
-253 11 -2 47 -11 80 -19 33 -9 76 -19 95 -22 19 -3 51 -10 70 -15 19 -5 46
-11 60 -14 260 -54 422 -87 449 -92 18 -3 43 -8 55 -10 11 -2 37 -7 56 -10 19
-3 42 -7 50 -9 8 -3 33 -7 55 -10 22 -4 47 -8 55 -10 8 -3 33 -7 55 -10 22 -4
51 -8 65 -11 87 -15 220 -36 250 -40 19 -2 82 -11 140 -19 160 -23 161 -23
225 -31 33 -3 68 -8 77 -9 9 -2 48 -7 85 -10 37 -4 75 -8 83 -10 8 -2 51 -7
95 -11 44 -3 87 -7 95 -9 8 -2 49 -6 90 -9 41 -4 95 -9 120 -12 25 -3 74 -7
109 -9 34 -2 88 -6 119 -9 53 -5 134 -10 307 -21 509 -29 1188 -34 1695 -10
254 11 444 22 525 30 28 3 82 7 120 10 39 3 93 7 120 10 187 17 198 18 300 30
22 2 67 7 100 10 33 4 71 8 85 10 14 2 52 7 85 11 33 3 68 8 79 10 10 2 44 6
75 9 31 3 67 8 81 10 35 6 78 13 130 20 25 3 56 8 70 10 14 2 43 6 65 10 23 3
50 7 62 9 11 3 38 7 59 11 59 9 92 14 179 30 44 8 96 17 115 20 38 6 242 45
275 52 11 2 31 6 45 9 96 19 240 49 278 58 9 2 71 16 137 31 66 15 165 38 220
51 55 14 107 27 115 28 48 11 281 73 370 98 58 16 112 31 121 33 19 4 30 7
234 68 1440 430 2793 1043 4085 1850 313 196 899 597 1095 750 6 4 33 24 60
45 57 42 350 268 380 293 11 10 83 68 160 131 160 130 159 129 314 262 117
100 353 310 402 356 15 14 80 74 145 135 124 114 608 596 729 726 39 41 108
116 155 168 47 51 96 105 110 120 31 32 196 222 311 356 128 150 301 362 432
530 64 83 121 155 126 161 9 11 213 287 273 369 205 282 471 681 697 1048 62
101 261 438 261 442 0 3 22 42 49 87 178 305 474 891 694 1378 47 103 204 475
241 570 21 52 43 109 51 125 102 234 423 1182 505 1490 13 47 70 258 75 275 9
30 57 215 60 230 2 8 11 44 20 80 9 36 19 72 20 80 2 8 24 103 49 210 25 107
47 206 50 220 4 21 30 147 51 250 11 50 16 76 20 103 3 15 7 37 9 50 12 59 26
135 31 167 7 45 14 79 20 110 2 13 7 40 10 60 3 20 7 47 10 60 3 13 7 42 10
65 3 22 8 51 10 65 8 45 14 84 20 130 3 25 9 70 15 100 5 30 12 80 15 110 4
30 8 66 10 80 2 14 6 48 10 75 3 28 8 61 10 75 2 14 6 55 10 92 3 37 7 75 9
85 2 10 7 54 10 98 4 44 9 87 11 95 2 8 7 53 10 100 4 47 8 101 10 120 2 19 6
82 10 140 4 58 8 116 10 130 3 22 8 91 20 340 24 458 24 1290 0 1650 -2 30 -6
108 -10 173 -4 64 -8 134 -10 155 -2 20 -7 82 -10 137 -4 55 -8 116 -10 135
-2 19 -6 72 -10 118 -3 45 -8 91 -10 101 -2 11 -7 52 -10 93 -4 40 -8 87 -11
103 -2 17 -6 55 -9 85 -4 30 -8 65 -10 78 -2 13 -7 53 -10 90 -4 37 -8 74 -10
82 -3 8 -9 53 -15 100 -5 47 -12 94 -14 105 -2 11 -7 43 -10 70 -4 28 -13 88
-21 135 -8 47 -16 103 -20 125 -3 22 -7 47 -10 55 -2 8 -6 38 -10 65 -3 28 -8
57 -10 65 -2 8 -7 29 -10 45 -19 109 -31 172 -66 350 -22 110 -43 211 -45 225
-18 94 -109 472 -178 745 -145 569 -395 1324 -644 1945 -187 468 -330 784
-581 1285 -85 171 -172 339 -191 375 -20 36 -53 94 -72 130 -69 126 -92 167
-183 325 -140 241 -161 277 -272 455 -47 74 -90 144 -96 154 -46 76 -337 513
-438 656 -120 172 -364 503 -464 630 -117 149 -210 266 -220 276 -5 6 -23 28
-40 49 -115 147 -514 608 -658 761 -34 37 -100 108 -147 158 -189 202 -643
649 -870 856 -51 47 -105 96 -120 110 -15 14 -55 50 -90 80 -35 30 -68 60 -74
65 -56 53 -392 334 -596 498 -377 305 -1036 773 -1485 1056 -617 389 -1389
806 -1985 1073 -36 16 -83 38 -105 47 -22 10 -57 26 -78 35 -90 41 -409 176
-414 176 -3 0 -19 6 -36 14 -18 8 -79 33 -137 56 -58 23 -132 52 -165 65 -311
123 -773 279 -1265 429 -86 26 -548 153 -585 160 -11 3 -56 14 -100 25 -135
34 -372 90 -404 96 -17 3 -59 12 -94 20 -34 8 -80 17 -101 21 -22 3 -50 10
-63 15 -13 5 -23 7 -23 4 0 -2 -14 0 -32 5 -17 5 -50 12 -72 15 -23 3 -48 8
-56 10 -21 6 -325 62 -375 70 -23 3 -52 8 -65 10 -14 3 -41 7 -60 10 -19 3
-46 7 -59 10 -14 2 -59 9 -101 15 -42 6 -85 12 -96 14 -10 2 -41 7 -69 10 -27
4 -61 9 -75 11 -14 2 -99 13 -190 25 -91 11 -181 22 -201 25 -20 2 -85 9 -145
15 -60 6 -127 13 -149 15 -78 9 -207 20 -350 29 -49 4 -117 9 -150 11 -217 16
-387 23 -735 31 -407 9 -451 9 -453 8z"/>
</g>
</svg>
